<svg width="27" height="24" viewBox="0 0 27 24" fill="none" xmlns="http://www.w3.org/2000/svg">
<path fill-rule="evenodd" clip-rule="evenodd" d="M15.8715 10.7364H19.4958C20.0453 10.7364 20.4771 10.3345 20.4771 9.84987C20.4771 9.3534 20.0453 8.96331 19.4958 8.96331H15.8715C15.322 8.96331 14.8902 9.3534 14.8902 9.84987C14.8902 10.3345 15.322 10.7364 15.8715 10.7364ZM23.8008 4.59085C24.5989 4.59085 25.1223 4.83909 25.6456 5.38285C26.169 5.92661 26.2606 6.70679 26.1428 7.41486L24.8998 15.1694C24.6643 16.66 23.2513 17.7581 21.5896 17.7581H7.31493C5.57476 17.7581 4.13552 16.5536 3.99159 14.9932L2.78786 2.10728L0.812179 1.79994C0.288819 1.71719 -0.077533 1.25617 0.014055 0.783339C0.105643 0.299865 0.615919 -0.0204817 1.15236 0.0516258L4.2729 0.475996C4.71776 0.548103 5.04486 0.877906 5.08411 1.27982L5.3327 3.9277C5.37196 4.30715 5.71214 4.59085 6.13083 4.59085H23.8008ZM7.10566 19.6264C6.0066 19.6264 5.11689 20.4303 5.11689 21.4232C5.11689 22.4044 6.0066 23.2082 7.10566 23.2082C8.19163 23.2082 9.08134 22.4044 9.08134 21.4232C9.08134 20.4303 8.19163 19.6264 7.10566 19.6264ZM21.8248 19.6264C20.7258 19.6264 19.8361 20.4303 19.8361 21.4232C19.8361 22.4044 20.7258 23.2082 21.8248 23.2082C22.9108 23.2082 23.8005 22.4044 23.8005 21.4232C23.8005 20.4303 22.9108 19.6264 21.8248 19.6264Z" fill="#84A9C0"/>
</svg>
